<?xml version="1.0" encoding="UTF-8" standalone="no"?>
<svg
   xmlns:dc="http://purl.org/dc/elements/1.1/"
   xmlns:cc="http://creativecommons.org/ns#"
   xmlns:rdf="http://www.w3.org/1999/02/22-rdf-syntax-ns#"
   xmlns:svg="http://www.w3.org/2000/svg"
   xmlns="http://www.w3.org/2000/svg"
   width="744.09448819"
   height="1052.3622047"
   id="svg3290"
   version="1.1">
  <defs
     id="defs3292" />
  <g id="layer1">
    <g
       style="display:inline"
       id="g3879"
       transform="matrix(3.1607572,0,0,3.1607572,1289.8039,2829.9529)">
      <path
         id="path3773"
         d="m -287.05192,-768.95371 m 11.01179,28.68474 a 30.724865,30.724865 0 1 0 -22.02358,0 l -20.69627,53.92828 a 88.487611,88.487611 0 1 1 63.41612,0 z"
         style="text-anchor:middle;fill:#3fa652;stroke:#21552a;stroke-width:7.37396765;stroke-linejoin:round" />
      <g
         id="g3797"
         transform="translate(-21.225811,-1.0146812)">
        <path
           transform="matrix(0.33912491,0,0,0.33852655,-402.53969,-908.3754)"
           d="m 669.28572,646.64789 c 0,13.01813 -10.55329,23.57141 -23.57143,23.57141 -13.01814,0 -23.57142,-10.55328 -23.57142,-23.57141 0,-13.01813 10.55328,-23.57141 23.57142,-23.57141 13.01814,0 23.57143,10.55328 23.57143,23.57141 z"
           id="path3015"
           style="fill:none;stroke:#000000;stroke-width:6.66513872;stroke-miterlimit:4;stroke-opacity:1;stroke-dasharray:none" />
        <text
           id="text3793"
           y="-685.33014"
           x="-188.29698"
           style="font-size:12.65519524px;font-style:normal;font-variant:normal;font-weight:bold;font-stretch:normal;line-height:125%;letter-spacing:0px;word-spacing:0px;fill:#000000;fill-opacity:1;stroke:none;font-family:OpenSymbol;-inkscape-font-specification:OpenSymbol Bold"
           xml:space="preserve"><tspan
             y="-685.33014"
             x="-188.29698"
             id="tspan3795">R</tspan></text>
      </g>
    </g>
  </g>
</svg>
